<svg width="26" height="26" viewBox="0 0 26 26" fill="none" xmlns="http://www.w3.org/2000/svg">
<path id="Vector" d="M9.15882 4.50365C9.93986 2.21787 13.098 2.14864 14.024 4.29597L14.1024 4.50496L15.1564 7.5875C15.398 8.29444 15.7883 8.94135 16.3011 9.4846C16.8139 10.0279 17.4372 10.4548 18.1291 10.7367L18.4125 10.8425L21.4949 11.8952C23.7805 12.6763 23.8498 15.8346 21.7038 16.7607L21.4949 16.8391L18.4125 17.8931C17.7053 18.1345 17.0582 18.5248 16.5148 19.0377C15.9713 19.5505 15.5442 20.174 15.2622 20.866L15.1564 21.1481L14.1037 24.2319C13.3226 26.5177 10.1645 26.587 9.2398 24.4409L9.15882 24.2319L8.10611 21.1494C7.86472 20.4422 7.47445 19.795 6.96163 19.2516C6.44882 18.7081 5.8254 18.2809 5.13344 17.9989L4.85132 17.8931L1.76894 16.8404C-0.518026 16.0593 -0.587249 12.901 1.55997 11.9762L1.76894 11.8952L4.85132 10.8425C5.55823 10.6009 6.2051 10.2105 6.74832 9.6977C7.29155 9.18487 7.71848 8.5615 8.00032 7.86963L8.10611 7.5875L9.15882 4.50365ZM22.08 2.36007e-07C22.3243 -3.08218e-07 22.5638 0.0685452 22.7711 0.197847C22.9785 0.327148 23.1454 0.512019 23.2529 0.731452L23.3156 0.884273L23.7727 2.2244L25.1141 2.68155C25.3589 2.76475 25.5736 2.91877 25.7308 3.1241C25.8881 3.32943 25.9808 3.57682 25.9973 3.83492C26.0138 4.09302 25.9534 4.35022 25.8236 4.57391C25.6937 4.79759 25.5005 4.97771 25.2682 5.09142L25.1141 5.15412L23.774 5.61128L23.3169 6.95271C23.2335 7.19752 23.0794 7.41208 22.874 7.56921C22.6686 7.72633 22.4212 7.81894 22.1631 7.83531C21.905 7.85168 21.6479 7.79106 21.4243 7.66114C21.2007 7.53122 21.0207 7.33785 20.9071 7.10553L20.8444 6.95271L20.3873 5.61258L19.0459 5.15543C18.8011 5.07223 18.5864 4.91821 18.4292 4.71288C18.2719 4.50755 18.1792 4.26016 18.1627 4.00206C18.1462 3.74396 18.2066 3.48676 18.3365 3.26307C18.4663 3.03939 18.6596 2.85927 18.8918 2.74556L19.0459 2.68286L20.386 2.2257L20.8431 0.884273C20.9312 0.626208 21.0978 0.402179 21.3196 0.243598C21.5415 0.0850169 21.8073 -0.000163638 22.08 2.36007e-07Z" fill="url(#paint0_linear_596_8809)"/>
<defs>
<linearGradient id="paint0_linear_596_8809" x1="2.5" y1="13.5" x2="33" y2="18" gradientUnits="userSpaceOnUse">
<stop stop-color="#2B07B1"/>
<stop offset="0.205" stop-color="#8519C4"/>
<stop offset="0.425" stop-color="#DC0468"/>
<stop offset="0.69" stop-color="#E84107"/>
<stop offset="0.932003" stop-color="#3AA240"/>
</linearGradient>
</defs>
</svg>
