<svg width="48" height="52" viewBox="0 0 48 52" fill="none" xmlns="http://www.w3.org/2000/svg">
<g id="Group 1171276142">
<path id="Vector" d="M35.1583 20.0345L24.8726 13.9488C24.6082 13.7928 24.3067 13.7106 23.9998 13.7109C23.6928 13.7112 23.3915 13.794 23.1274 13.9505L12.8417 20.0362C12.5855 20.1877 12.3731 20.4033 12.2255 20.6618C12.078 20.9203 12.0002 21.2128 12 21.5105V33.3391C12 33.9459 12.3206 34.5065 12.8417 34.8133L23.1274 40.8991C23.3911 41.0571 23.6926 41.1406 24 41.1406C24.3074 41.1406 24.6089 41.0571 24.8726 40.8991L35.1583 34.8133C35.4145 34.6618 35.6269 34.4462 35.7745 34.1877C35.922 33.9292 35.9998 33.6367 36 33.3391V21.5105C36.0001 21.2125 35.9225 20.9197 35.7749 20.6609C35.6273 20.402 35.4148 20.1861 35.1583 20.0345ZM32.5714 32.3619L24 37.4328L15.4286 32.3619V22.4876L24 17.4168L32.5714 22.4876V32.3619Z" fill="black"/>
<path id="Vector_2" d="M6.85714 32.8869V17.2629L17.4857 10.9817L15.7423 8.02971L4.27029 14.8097C4.01381 14.9614 3.8013 15.1773 3.6537 15.4361C3.50609 15.6949 3.4285 15.9878 3.42857 16.2857V32.8869C2.4293 33.2401 1.56359 33.8935 0.949865 34.7577C0.336144 35.6218 0.00439366 36.6544 0 37.7143C0 40.5497 2.30743 42.8571 5.14286 42.8571C7.97829 42.8571 10.2857 40.5497 10.2857 37.7143C10.2813 36.6544 9.94957 35.6218 9.33585 34.7577C8.72213 33.8935 7.85641 33.2401 6.85714 32.8869ZM5.14286 39.4286C4.70146 39.4088 4.28469 39.2196 3.97933 38.9003C3.67397 38.5809 3.50354 38.1561 3.50354 37.7143C3.50354 37.2724 3.67397 36.8476 3.97933 36.5283C4.28469 36.209 4.70146 36.0197 5.14286 36C5.58425 36.0197 6.00102 36.209 6.30638 36.5283C6.61175 36.8476 6.78217 37.2724 6.78217 37.7143C6.78217 38.1561 6.61175 38.5809 6.30638 38.9003C6.00102 39.2196 5.58425 39.4088 5.14286 39.4286ZM42.8571 32.5714C40.0217 32.5714 37.7143 34.8789 37.7143 37.7143C37.7143 38.3194 37.8377 38.892 38.0314 39.432L24 47.7223L13.0217 41.2354L11.2783 44.1874L23.1274 51.1886C23.3915 51.3451 23.6928 51.4278 23.9998 51.4281C24.3067 51.4284 24.6082 51.3463 24.8726 51.1903L40.2326 42.1131C41.004 42.5743 41.8954 42.8571 42.8571 42.8571C45.6926 42.8571 48 40.5497 48 37.7143C48 34.8789 45.6926 32.5714 42.8571 32.5714ZM42.8571 39.4286C42.4157 39.4088 41.999 39.2196 41.6936 38.9003C41.3883 38.5809 41.2178 38.1561 41.2178 37.7143C41.2178 37.2724 41.3883 36.8476 41.6936 36.5283C41.999 36.209 42.4157 36.0197 42.8571 36C43.2985 36.0197 43.7153 36.209 44.0207 36.5283C44.326 36.8476 44.4965 37.2724 44.4965 37.7143C44.4965 38.1561 44.326 38.5809 44.0207 38.9003C43.7153 39.2196 43.2985 39.4088 42.8571 39.4286ZM24 10.2857C25.2531 10.2857 26.3863 9.81771 27.2794 9.072L41.1429 17.2646V29.1429H44.5714V16.2857C44.5715 15.9878 44.4939 15.6949 44.3463 15.4361C44.1987 15.1773 43.9862 14.9614 43.7297 14.8097L29.0434 6.132C29.1074 5.812 29.1406 5.48229 29.1429 5.14286C29.1429 2.30743 26.8354 0 24 0C21.1646 0 18.8571 2.30743 18.8571 5.14286C18.8571 7.97829 21.1646 10.2857 24 10.2857ZM24 3.42857C24.3395 3.42823 24.6715 3.52863 24.954 3.71706C25.2365 3.90548 25.4567 4.17347 25.5868 4.48709C25.7169 4.80072 25.751 5.14589 25.6848 5.47893C25.6187 5.81196 25.4552 6.11788 25.2151 6.35797C24.975 6.59806 24.6691 6.76152 24.3361 6.82768C24.003 6.89384 23.6579 6.85971 23.3442 6.72962C23.0306 6.59953 22.7626 6.37932 22.5742 6.09686C22.3858 5.8144 22.2854 5.4824 22.2857 5.14286C22.2857 4.19657 23.0554 3.42857 24 3.42857Z" fill="black"/>
</g>
</svg>
