<svg width="49" height="35" viewBox="0 0 49 35" fill="none" xmlns="http://www.w3.org/2000/svg">
<path id="Vector" d="M12.25 35C8.87197 35 5.98617 33.8516 3.59259 31.5547C1.19902 29.2578 0.00148485 26.4505 0 23.1328C0 20.2891 0.872348 17.7552 2.61705 15.5313C4.36174 13.3073 6.6447 11.8854 9.46591 11.2656C10.3939 7.91146 12.25 5.19531 15.0341 3.11719C17.8182 1.03906 20.9735 0 24.5 0C28.8432 0 32.5278 1.48604 35.554 4.45813C38.5801 7.43021 40.0924 11.0483 40.0909 15.3125C42.6523 15.6042 44.7778 16.6892 46.4676 18.5675C48.1574 20.4458 49.0015 22.6421 49 25.1562C49 27.8906 48.0259 30.2152 46.0778 32.13C44.1297 34.0448 41.7628 35.0015 38.9773 35H12.25ZM12.25 30.625H38.9773C40.5364 30.625 41.8542 30.0964 42.9307 29.0391C44.0072 27.9818 44.5455 26.6875 44.5455 25.1562C44.5455 23.625 44.0072 22.3307 42.9307 21.2734C41.8542 20.2161 40.5364 19.6875 38.9773 19.6875H35.6364V15.3125C35.6364 12.2865 34.5502 9.70667 32.3779 7.57312C30.2055 5.43958 27.5796 4.37354 24.5 4.375C21.4204 4.37646 18.7945 5.44323 16.6221 7.57531C14.4498 9.7074 13.3636 12.2865 13.3636 15.3125H12.25C10.097 15.3125 8.25947 16.0599 6.7375 17.5547C5.21553 19.0495 4.45455 20.8542 4.45455 22.9688C4.45455 25.0833 5.21553 26.888 6.7375 28.3828C8.25947 29.8776 10.097 30.625 12.25 30.625Z" fill="black"/>
</svg>
