<svg width="41" height="45" viewBox="0 0 41 45" fill="none" xmlns="http://www.w3.org/2000/svg">
<path id="Vector" d="M28.4727 28.125C28.4727 32.625 22.7782 36 22.7782 39.375H18.2225C18.2225 36 12.528 32.625 12.528 28.125C12.528 23.7825 16.1042 20.25 20.5004 20.25C24.8965 20.25 28.4727 23.7825 28.4727 28.125ZM22.7782 41.625H18.2225V45H22.7782V41.625ZM36.4451 27C36.4451 30.78 35.1012 34.2225 32.8461 36.945L36.0806 40.14C37.8315 38.1208 39.1617 35.78 39.995 33.252C40.8283 30.724 41.1483 28.0584 40.9367 25.408C40.7251 22.7576 39.986 20.1745 38.7618 17.8067C37.5377 15.439 35.8524 13.3332 33.8028 11.61L30.5683 14.805C32.4021 16.28 33.8808 18.1395 34.8972 20.2487C35.9136 22.3579 36.4424 24.664 36.4451 27ZM29.6116 9L20.5004 0V6.75C15.0633 6.75 9.84898 8.88348 6.00441 12.6811C2.15985 16.4787 0 21.6294 0 27C0 32.0175 1.86781 36.6075 4.92008 40.14L8.15458 36.945C5.82198 34.1435 4.5495 30.6273 4.55563 27C4.55563 18.315 11.708 11.25 20.5004 11.25V18L29.6116 9Z" fill="black"/>
</svg>
