<svg width="35" height="35" viewBox="0 0 35 35" fill="none" xmlns="http://www.w3.org/2000/svg">
<g id="Group 1171276143">
<path id="Vector" d="M7.5 2.5V7.5H2.5V2.5H7.5ZM0 0V10H10V0H0ZM20 6.25V11.25H15V6.25H20ZM12.5 3.75V13.75H22.5V3.75H12.5ZM7.5 17.5V22.5H2.5V17.5H7.5ZM0 15V25H10V15H0Z" fill="black"/>
<path id="Vector_2" d="M25 10V17.5H17.5V25H10V35H35V10H25ZM20 20H25V25H20V20ZM17.5 32.5H12.5V27.5H17.5V32.5ZM25 32.5H20V27.5H25V32.5ZM32.5 32.5H27.5V27.5H32.5V32.5ZM32.5 25H27.5V20H32.5V25ZM27.5 17.5V12.5H32.5V17.5H27.5Z" fill="black"/>
</g>
</svg>
