<svg width="38" height="42" viewBox="0 0 38 42" fill="none" xmlns="http://www.w3.org/2000/svg">
<path id="Vector" d="M17.1111 2C8.766 2 2 8.7355 2 17.0461C2 19.8828 2.78767 22.5371 4.159 24.8M23.7222 19.1V22.9M29.3889 19.1V22.9M23.7222 3.9V7.7M29.3889 3.9V7.7M20.8889 10.55H17.1111M20.8889 16.25H17.1111M36 10.55H32.2222M36 16.25H32.2222M22.7778 34.3L22.5322 35.5293C22.2678 36.8726 22.1337 37.5433 21.8333 38.0753C21.3705 38.8953 20.6212 39.5129 19.731 39.8081C19.1549 40 18.4711 40 17.1111 40C15.7511 40 15.0673 40 14.4912 39.81C13.6007 39.5143 12.8513 38.896 12.3889 38.0753C12.0886 37.5433 11.9544 36.8726 11.69 35.5293L11.4444 34.3M28.4444 7.7H24.6667C22.8854 7.7 21.9958 7.7 21.4423 8.2567C20.8889 8.8134 20.8889 9.7083 20.8889 11.5V15.3C20.8889 17.0917 20.8889 17.9866 21.4423 18.5433C21.9958 19.1 22.8854 19.1 24.6667 19.1H28.4444C30.2257 19.1 31.1153 19.1 31.6688 18.5433C32.2222 17.9866 32.2222 17.0917 32.2222 15.3V11.5C32.2222 9.7083 32.2222 8.8134 31.6688 8.2567C31.1153 7.7 30.2257 7.7 28.4444 7.7ZM8.39011 30.6862C8.21633 30.1618 8.12944 29.8977 8.13889 29.6849C8.14957 29.4649 8.22341 29.2527 8.35146 29.074C8.47952 28.8952 8.6563 28.7577 8.86044 28.6779C9.05689 28.6 9.33267 28.6 9.88044 28.6H24.3418C24.8914 28.6 25.1653 28.6 25.3618 28.676C25.5662 28.7559 25.7432 28.8938 25.8713 29.0728C25.9993 29.2519 26.073 29.4645 26.0833 29.6849C26.0928 29.8977 26.0059 30.1599 25.8321 30.6862C25.511 31.6571 25.3504 32.1435 25.103 32.5368C24.5854 33.3588 23.7742 33.9497 22.8363 34.1879C22.3868 34.3 21.8806 34.3 20.8662 34.3H13.356C12.3417 34.3 11.8336 34.3 11.3859 34.186C10.4484 33.9483 9.63713 33.358 9.11922 32.5368C8.87178 32.1435 8.71122 31.6571 8.39011 30.6862Z" stroke="black" stroke-width="3" stroke-linecap="round" stroke-linejoin="round"/>
</svg>
