<svg width="19" height="13" viewBox="0 0 19 13" fill="none" xmlns="http://www.w3.org/2000/svg">
<path fill-rule="evenodd" clip-rule="evenodd" d="M17.6547 0.5C17.9957 0.5 18.3227 0.640476 18.5639 0.890524C18.805 1.14057 18.9404 1.47971 18.9404 1.83333V11.1667C18.9404 11.5203 18.805 11.8594 18.5639 12.1095C18.3227 12.3595 17.9957 12.5 17.6547 12.5C17.3137 12.5 16.9867 12.3595 16.7456 12.1095C16.5045 11.8594 16.369 11.5203 16.369 11.1667V1.83333C16.369 1.47971 16.5045 1.14057 16.7456 0.890524C16.9867 0.640476 17.3137 0.5 17.6547 0.5ZM8.65472 8.16667H2.54757C2.12133 8.16667 1.71255 7.99107 1.41115 7.67851C1.10975 7.36595 0.94043 6.94203 0.94043 6.5C0.94043 6.05797 1.10975 5.63405 1.41115 5.32149C1.71255 5.00893 2.12133 4.83333 2.54757 4.83333H8.65472V2.10933C8.65474 1.97742 8.69251 1.84848 8.76323 1.73883C8.83395 1.62918 8.93444 1.54376 9.052 1.49337C9.16956 1.44298 9.29888 1.42988 9.42362 1.45575C9.54835 1.48161 9.66288 1.54527 9.75272 1.63867L13.9853 6.028C14.0452 6.08993 14.0927 6.1635 14.1251 6.24449C14.1575 6.32548 14.1741 6.41231 14.1741 6.5C14.1741 6.58769 14.1575 6.67452 14.1251 6.75551C14.0927 6.83651 14.0452 6.91007 13.9853 6.972L9.75272 11.3613C9.66288 11.4547 9.54835 11.5184 9.42362 11.5443C9.29888 11.5701 9.16956 11.557 9.052 11.5066C8.93444 11.4562 8.83395 11.3708 8.76323 11.2612C8.69251 11.1515 8.65474 11.0226 8.65472 10.8907V8.16667Z" fill="white"/>
</svg>
