<svg width="19" height="13" viewBox="0 0 19 13" fill="none" xmlns="http://www.w3.org/2000/svg">
<path fill-rule="evenodd" clip-rule="evenodd" d="M16.7836 0.5C17.1246 0.5 17.4516 0.640476 17.6928 0.890524C17.9339 1.14057 18.0693 1.47971 18.0693 1.83333V11.1667C18.0693 11.5203 17.9339 11.8594 17.6928 12.1095C17.4516 12.3595 17.1246 12.5 16.7836 12.5C16.4426 12.5 16.1156 12.3595 15.8745 12.1095C15.6334 11.8594 15.4979 11.5203 15.4979 11.1667V1.83333C15.4979 1.47971 15.6334 1.14057 15.8745 0.890524C16.1156 0.640476 16.4426 0.5 16.7836 0.5ZM7.78362 8.16667H1.67648C1.25024 8.16667 0.841455 7.99107 0.540057 7.67851C0.238659 7.36595 0.0693359 6.94203 0.0693359 6.5C0.0693359 6.05797 0.238659 5.63405 0.540057 5.32149C0.841455 5.00893 1.25024 4.83333 1.67648 4.83333H7.78362V2.10933C7.78365 1.97742 7.82141 1.84848 7.89213 1.73883C7.96285 1.62918 8.06335 1.54376 8.18091 1.49337C8.29846 1.44298 8.42779 1.42988 8.55252 1.45575C8.67726 1.48161 8.79179 1.54527 8.88162 1.63867L13.1142 6.028C13.1741 6.08993 13.2216 6.1635 13.254 6.24449C13.2864 6.32548 13.3031 6.41231 13.3031 6.5C13.3031 6.58769 13.2864 6.67452 13.254 6.75551C13.2216 6.83651 13.1741 6.91007 13.1142 6.972L8.88162 11.3613C8.79179 11.4547 8.67726 11.5184 8.55252 11.5443C8.42779 11.5701 8.29846 11.557 8.18091 11.5066C8.06335 11.4562 7.96285 11.3708 7.89213 11.2612C7.82141 11.1515 7.78365 11.0226 7.78362 10.8907V8.16667Z" fill="white"/>
</svg>
