<svg width="44" height="49" viewBox="0 0 44 49" fill="none" xmlns="http://www.w3.org/2000/svg">
<path fill-rule="evenodd" clip-rule="evenodd" d="M22 3.1505e-07C19.4536 -0.00058666 16.9615 0.819038 14.8239 2.36007C12.6864 3.90111 10.9947 6.09777 9.9528 8.68525C9.80459 9.0562 9.65278 9.42536 9.4974 9.79265L9.4534 9.7951C9.3126 9.8 9.1212 9.8 8.8 9.8C6.46609 9.8 4.22778 10.8325 2.57746 12.6704C0.92714 14.5082 0 17.0009 0 19.6C0 22.1991 0.92714 24.6918 2.57746 26.5296C4.22778 28.3675 6.46609 29.4 8.8 29.4H9.1784L13.5784 24.5H8.8C7.63305 24.5 6.51389 23.9837 5.68873 23.0648C4.86357 22.1459 4.4 20.8996 4.4 19.6C4.4 18.3004 4.86357 17.0541 5.68873 16.1352C6.51389 15.2162 7.63305 14.7 8.8 14.7H8.9408C9.3984 14.7 9.9308 14.7024 10.3708 14.602C10.9185 14.4977 11.4421 14.2728 11.9108 13.9405C12.441 13.5583 12.8062 13.083 13.0834 12.6493C13.2532 12.37 13.4012 12.0749 13.5256 11.7673C13.6429 11.4946 13.7867 11.145 13.9568 10.7187L13.9656 10.6942C14.6595 8.96739 15.7873 7.50105 17.213 6.47217C18.6386 5.44328 20.3012 4.89581 22 4.89581C23.6988 4.89581 25.3614 5.44328 26.787 6.47217C28.2127 7.50105 29.3405 8.96739 30.0344 10.6942L30.0454 10.7187C30.2141 11.1434 30.3571 11.4929 30.4744 11.7673C30.5756 12.005 30.7252 12.3504 30.9166 12.6493C31.1938 13.0805 31.5568 13.5583 32.0892 13.9429C32.6216 14.3251 33.1606 14.4991 33.6292 14.6044C34.0692 14.7024 34.6016 14.7025 35.0592 14.7025L35.2 14.7C36.367 14.7 37.4861 15.2162 38.3113 16.1352C39.1364 17.0541 39.6 18.3004 39.6 19.6C39.6 20.8996 39.1364 22.1459 38.3113 23.0648C37.4861 23.9837 36.367 24.5 35.2 24.5H30.4216L34.8216 29.4H35.2C37.5339 29.4 39.7722 28.3675 41.4225 26.5296C43.0729 24.6918 44 22.1991 44 19.6C44 17.0009 43.0729 14.5082 41.4225 12.6704C39.7722 10.8325 37.5339 9.8 35.2 9.8C34.8788 9.8 34.6874 9.8 34.5466 9.7951H34.5026L34.4476 9.66525C34.3115 9.33995 34.178 9.01327 34.0472 8.68525C33.0053 6.09777 31.3136 3.90111 29.1761 2.36007C27.0385 0.819038 24.5464 -0.00058666 22 3.1505e-07Z" fill="black"/>
<path d="M21.9999 24.4995L20.4445 22.7673L21.9999 21.0352L23.5553 22.7673L21.9999 24.4995ZM24.1999 46.5495C24.1999 47.1992 23.9681 47.8224 23.5556 48.2819C23.143 48.7413 22.5834 48.9995 21.9999 48.9995C21.4165 48.9995 20.8569 48.7413 20.4443 48.2819C20.0317 47.8224 19.7999 47.1992 19.7999 46.5495H24.1999ZM11.6445 32.5673L20.4445 22.7673L23.5553 26.2316L14.7553 36.0316L11.6445 32.5673ZM23.5553 22.7673L32.3553 32.5673L29.2445 36.0316L20.4445 26.2316L23.5553 22.7673ZM24.1999 24.4995V46.5495H19.7999V24.4995H24.1999Z" fill="black"/>
</svg>
