<svg width="12" height="8" viewBox="0 0 12 8" fill="none" xmlns="http://www.w3.org/2000/svg">
<path d="M9.31082 3.17845V1.04508C9.31082 0.883423 9.2466 0.728385 9.13229 0.614075C9.01798 0.499766 8.86295 0.435547 8.70129 0.435547H1.38688C1.22522 0.435547 1.07018 0.499766 0.955872 0.614075C0.841562 0.728385 0.777344 0.883423 0.777344 1.04508V7.14042C0.777344 7.30208 0.841562 7.45712 0.955872 7.57143C1.07018 7.68574 1.22522 7.74996 1.38688 7.74996H8.70129C8.86295 7.74996 9.01798 7.68574 9.13229 7.57143C9.2466 7.45712 9.31082 7.30208 9.31082 7.14042V5.00705L11.749 7.44519V0.740314L9.31082 3.17845Z" fill="black"/>
</svg>
